<svg id="LOGO" xmlns="http://www.w3.org/2000/svg" width="199.67" height="42.22" viewBox="0 0 199.67 42.22"><defs><style>.cls-1{isolation:isolate;}.cls-2{fill:#606060;}.cls-3{fill:none;stroke:#606060;stroke-linejoin:round;}.cls-4{fill:#deb666;}</style></defs><title>logo</title><g class="cls-1"><path class="cls-2" d="M1.17,2.1Q1.63,2,2.13,2t1,0q.5,0,1,0t1,.12V13.54H16.93V2.1A9.2,9.2,0,0,1,17.86,2q.5,0,1,0t1,0q.52,0,1,.12V29.88a9.24,9.24,0,0,1-.93.12c-.33,0-.68,0-1,0s-.68,0-1,0a9.17,9.17,0,0,1-.95-.12V17H5.11V29.88c-.31.05-.62.09-.95.12s-.66,0-1,0-.68,0-1,0a9.16,9.16,0,0,1-.95-.12Z" transform="translate(-0.67 -0.91)"/><path class="cls-2" d="M35.4,30.35a9.71,9.71,0,0,1-4.06-.79,8,8,0,0,1-2.9-2.18,9.08,9.08,0,0,1-1.72-3.28,14.37,14.37,0,0,1-.56-4.1,14.38,14.38,0,0,1,.56-4.1,9.08,9.08,0,0,1,1.72-3.28,8.26,8.26,0,0,1,2.9-2.2A9.5,9.5,0,0,1,35.4,9.6a9.5,9.5,0,0,1,4.06.81,8.26,8.26,0,0,1,2.9,2.2,9.09,9.09,0,0,1,1.72,3.28,14.38,14.38,0,0,1,.56,4.1,14.37,14.37,0,0,1-.56,4.1,9.09,9.09,0,0,1-1.72,3.28,8,8,0,0,1-2.9,2.18A9.72,9.72,0,0,1,35.4,30.35Zm0-3.05a4.39,4.39,0,0,0,3.94-1.93A9.68,9.68,0,0,0,40.62,20a9.59,9.59,0,0,0-1.28-5.35,4.4,4.4,0,0,0-3.94-1.91,4.36,4.36,0,0,0-3.92,1.91A9.7,9.7,0,0,0,30.22,20a9.8,9.8,0,0,0,1.26,5.37A4.34,4.34,0,0,0,35.4,27.3Z" transform="translate(-0.67 -0.91)"/><path class="cls-2" d="M50.39,13.12h-3l-.15-.54,6.65-7.42h.31v4.91h5a6.45,6.45,0,0,1,.15,1.47c0,.28,0,.55,0,.81s-.06.52-.12.77h-5v9a19.54,19.54,0,0,0,.14,2.59,3.82,3.82,0,0,0,.46,1.49,1.58,1.58,0,0,0,.89.7,4.83,4.83,0,0,0,1.41.17,7.52,7.52,0,0,0,1.24-.1q.58-.1,1-.21a6.12,6.12,0,0,1,.33,1.58q.06.81.06,1.43a12.7,12.7,0,0,1-1.62.29,16.35,16.35,0,0,1-1.82.1A6.43,6.43,0,0,1,52,28.84q-1.56-1.35-1.56-4.48Z" transform="translate(-0.67 -0.91)"/><path class="cls-2" d="M66.35,20.92A6.47,6.47,0,0,0,68,25.67a6.67,6.67,0,0,0,4.73,1.51,14.2,14.2,0,0,0,5.22-1,5.82,5.82,0,0,1,.5,1.41,9.2,9.2,0,0,1,.23,1.64,13,13,0,0,1-2.8.81,19.5,19.5,0,0,1-3.38.27,12.75,12.75,0,0,1-4.64-.75,8.15,8.15,0,0,1-5-5.37,13.87,13.87,0,0,1-.58-4.12A14.58,14.58,0,0,1,62.85,16a9.26,9.26,0,0,1,1.72-3.32,8.3,8.3,0,0,1,2.92-2.24,9.64,9.64,0,0,1,4.15-.83,8.68,8.68,0,0,1,3.59.7,7.31,7.31,0,0,1,2.59,1.91,8.31,8.31,0,0,1,1.58,2.9A11.87,11.87,0,0,1,80,18.76q0,.54,0,1.14t-.08,1Zm9.81-2.86A7.29,7.29,0,0,0,75.87,16,5.23,5.23,0,0,0,75,14.27a4.14,4.14,0,0,0-1.43-1.18,4.5,4.5,0,0,0-2.07-.44,4.55,4.55,0,0,0-3.61,1.43,7,7,0,0,0-1.53,4Z" transform="translate(-0.67 -0.91)"/><path class="cls-2" d="M84.9,1.56a9.17,9.17,0,0,1,.95-.12q.52,0,.95,0t.95,0a9.19,9.19,0,0,1,.95.12V23.9a5.92,5.92,0,0,0,.19,1.7,2.28,2.28,0,0,0,.52.95,1.52,1.52,0,0,0,.77.42,4.38,4.38,0,0,0,.95.1c.23,0,.5,0,.79,0a5,5,0,0,0,.75-.12A11.78,11.78,0,0,1,93,29.85a5.08,5.08,0,0,1-1.31.25q-.77.06-1.43.06a7.73,7.73,0,0,1-2.09-.27,4.47,4.47,0,0,1-1.7-.89,4.18,4.18,0,0,1-1.16-1.66,6.88,6.88,0,0,1-.43-2.59Z" transform="translate(-0.67 -0.91)"/><path class="cls-2" d="M103.48,29.54l14-24H105.22a5.87,5.87,0,0,1-.12-.81c0-.31,0-.6,0-.89s0-.58,0-.89a7.2,7.2,0,0,1,.12-.85h18l.27.35-14,24h13a6.25,6.25,0,0,1,.12.83c0,.32,0,.63,0,.91s0,.58,0,.89a6.2,6.2,0,0,1-.12.81H103.71Z" transform="translate(-0.67 -0.91)"/><path class="cls-2" d="M137.56,16.82a3.77,3.77,0,0,0-1.16-3.17,5.45,5.45,0,0,0-3.36-.89,14.27,14.27,0,0,0-2.53.21,19.25,19.25,0,0,0-2.3.56,6,6,0,0,1-.73-3.05,17.87,17.87,0,0,1,2.9-.66,21.14,21.14,0,0,1,3.05-.23,8.67,8.67,0,0,1,5.87,1.76q2,1.76,2,5.62v12.4Q140,29.69,138,30a23.51,23.51,0,0,1-3.94.33,15.38,15.38,0,0,1-3.42-.35,7,7,0,0,1-2.59-1.12,5.2,5.2,0,0,1-1.64-2,6.62,6.62,0,0,1-.58-2.9,5.91,5.91,0,0,1,2.51-5A8.18,8.18,0,0,1,131,17.77a12.14,12.14,0,0,1,3.17-.41q1.24,0,2,.06c.53,0,1,.08,1.33.14Zm0,3.75q-.58-.08-1.47-.15c-.59-.05-1.09-.08-1.51-.08a6.29,6.29,0,0,0-3.65.89,3.09,3.09,0,0,0-1.26,2.7,3.31,3.31,0,0,0,.43,1.82,2.92,2.92,0,0,0,1.06,1,3.67,3.67,0,0,0,1.41.42,14.43,14.43,0,0,0,1.47.08,18.09,18.09,0,0,0,1.83-.1,11,11,0,0,0,1.68-.29Z" transform="translate(-0.67 -0.91)"/><path class="cls-2" d="M147.07,10.06q.42-.08.83-.12c.27,0,.55,0,.83,0a7.71,7.71,0,0,1,.79,0l.79.12q.12.58.23,1.56a14.32,14.32,0,0,1,.12,1.64,7.91,7.91,0,0,1,1-1.31A7.61,7.61,0,0,1,153,10.78a7.07,7.07,0,0,1,4-1.18,6.16,6.16,0,0,1,5,2,8.85,8.85,0,0,1,1.62,5.78V29.88a9.18,9.18,0,0,1-1,.12c-.36,0-.68,0-1,0s-.6,0-.95,0a9.19,9.19,0,0,1-.95-.12V18.37a7.52,7.52,0,0,0-.85-4A3,3,0,0,0,156.26,13a5.46,5.46,0,0,0-2,.39,4.55,4.55,0,0,0-1.7,1.2,6,6,0,0,0-1.18,2.11,9.61,9.61,0,0,0-.45,3.11v10a9.17,9.17,0,0,1-.95.12c-.35,0-.66,0-.95,0s-.61,0-1,0a9.14,9.14,0,0,1-1-.12Z" transform="translate(-0.67 -0.91)"/><path class="cls-2" d="M170.13,13.12h-3l-.15-.54,6.65-7.42h.31v4.91h5a6.45,6.45,0,0,1,.15,1.47c0,.28,0,.55,0,.81s-.06.52-.12.77h-5v9a19.64,19.64,0,0,0,.13,2.59,3.82,3.82,0,0,0,.46,1.49,1.58,1.58,0,0,0,.89.7,4.83,4.83,0,0,0,1.41.17,7.52,7.52,0,0,0,1.24-.1q.58-.1,1-.21a6.1,6.1,0,0,1,.33,1.58q.06.81.06,1.43a12.7,12.7,0,0,1-1.62.29,16.34,16.34,0,0,1-1.82.1,6.43,6.43,0,0,1-4.35-1.35q-1.56-1.35-1.57-4.48Z" transform="translate(-0.67 -0.91)"/><path class="cls-2" d="M186.09,20.92a6.47,6.47,0,0,0,1.68,4.75,6.68,6.68,0,0,0,4.73,1.51,14.2,14.2,0,0,0,5.22-1,5.84,5.84,0,0,1,.5,1.41,9.29,9.29,0,0,1,.23,1.64,13,13,0,0,1-2.8.81,19.51,19.51,0,0,1-3.38.27,12.75,12.75,0,0,1-4.64-.75,8.33,8.33,0,0,1-3.19-2.12,8.41,8.41,0,0,1-1.84-3.25,13.87,13.87,0,0,1-.58-4.12A14.6,14.6,0,0,1,182.6,16a9.25,9.25,0,0,1,1.72-3.32,8.3,8.3,0,0,1,2.92-2.24,9.64,9.64,0,0,1,4.15-.83,8.68,8.68,0,0,1,3.59.7,7.31,7.31,0,0,1,2.59,1.91,8.3,8.3,0,0,1,1.58,2.9,11.87,11.87,0,0,1,.54,3.65q0,.54,0,1.14t-.08,1Zm9.81-2.86a7.29,7.29,0,0,0-.29-2.07,5.23,5.23,0,0,0-.85-1.72,4.13,4.13,0,0,0-1.43-1.18,4.5,4.5,0,0,0-2.07-.44,4.55,4.55,0,0,0-3.61,1.43,7,7,0,0,0-1.53,4Z" transform="translate(-0.67 -0.91)"/></g><g id="Hotel_Zante" data-name="Hotel Zante" class="cls-1"><path class="cls-3" d="M1.17,2.1Q1.63,2,2.13,2t1,0q.5,0,1,0t1,.12V13.54H16.93V2.1A9.2,9.2,0,0,1,17.86,2q.5,0,1,0t1,0q.52,0,1,.12V29.88a9.24,9.24,0,0,1-.93.12c-.33,0-.68,0-1,0s-.68,0-1,0a9.17,9.17,0,0,1-.95-.12V17H5.11V29.88c-.31.05-.62.09-.95.12s-.66,0-1,0-.68,0-1,0a9.16,9.16,0,0,1-.95-.12Z" transform="translate(-0.67 -0.91)"/><path class="cls-3" d="M35.4,30.35a9.71,9.71,0,0,1-4.06-.79,8,8,0,0,1-2.9-2.18,9.08,9.08,0,0,1-1.72-3.28,14.37,14.37,0,0,1-.56-4.1,14.38,14.38,0,0,1,.56-4.1,9.08,9.08,0,0,1,1.72-3.28,8.26,8.26,0,0,1,2.9-2.2A9.5,9.5,0,0,1,35.4,9.6a9.5,9.5,0,0,1,4.06.81,8.26,8.26,0,0,1,2.9,2.2,9.09,9.09,0,0,1,1.72,3.28,14.38,14.38,0,0,1,.56,4.1,14.37,14.37,0,0,1-.56,4.1,9.09,9.09,0,0,1-1.72,3.28,8,8,0,0,1-2.9,2.18A9.72,9.72,0,0,1,35.4,30.35Zm0-3.05a4.39,4.39,0,0,0,3.94-1.93A9.68,9.68,0,0,0,40.62,20a9.59,9.59,0,0,0-1.28-5.35,4.4,4.4,0,0,0-3.94-1.91,4.36,4.36,0,0,0-3.92,1.91A9.7,9.7,0,0,0,30.22,20a9.8,9.8,0,0,0,1.26,5.37A4.34,4.34,0,0,0,35.4,27.3Z" transform="translate(-0.67 -0.91)"/><path class="cls-3" d="M50.39,13.12h-3l-.15-.54,6.65-7.42h.31v4.91h5a6.45,6.45,0,0,1,.15,1.47c0,.28,0,.55,0,.81s-.06.52-.12.77h-5v9a19.54,19.54,0,0,0,.14,2.59,3.82,3.82,0,0,0,.46,1.49,1.58,1.58,0,0,0,.89.7,4.83,4.83,0,0,0,1.41.17,7.52,7.52,0,0,0,1.24-.1q.58-.1,1-.21a6.12,6.12,0,0,1,.33,1.58q.06.81.06,1.43a12.7,12.7,0,0,1-1.62.29,16.35,16.35,0,0,1-1.82.1A6.43,6.43,0,0,1,52,28.84q-1.56-1.35-1.56-4.48Z" transform="translate(-0.67 -0.91)"/><path class="cls-3" d="M66.35,20.92A6.47,6.47,0,0,0,68,25.67a6.67,6.67,0,0,0,4.73,1.51,14.2,14.2,0,0,0,5.22-1,5.82,5.82,0,0,1,.5,1.41,9.2,9.2,0,0,1,.23,1.64,13,13,0,0,1-2.8.81,19.5,19.5,0,0,1-3.38.27,12.75,12.75,0,0,1-4.64-.75,8.15,8.15,0,0,1-5-5.37,13.87,13.87,0,0,1-.58-4.12A14.58,14.58,0,0,1,62.85,16a9.26,9.26,0,0,1,1.72-3.32,8.3,8.3,0,0,1,2.92-2.24,9.64,9.64,0,0,1,4.15-.83,8.68,8.68,0,0,1,3.59.7,7.31,7.31,0,0,1,2.59,1.91,8.31,8.31,0,0,1,1.58,2.9A11.87,11.87,0,0,1,80,18.76q0,.54,0,1.14t-.08,1Zm9.81-2.86A7.29,7.29,0,0,0,75.87,16,5.23,5.23,0,0,0,75,14.27a4.14,4.14,0,0,0-1.43-1.18,4.5,4.5,0,0,0-2.07-.44,4.55,4.55,0,0,0-3.61,1.43,7,7,0,0,0-1.53,4Z" transform="translate(-0.67 -0.91)"/><path class="cls-3" d="M84.9,1.56a9.17,9.17,0,0,1,.95-.12q.52,0,.95,0t.95,0a9.19,9.19,0,0,1,.95.12V23.9a5.92,5.92,0,0,0,.19,1.7,2.28,2.28,0,0,0,.52.95,1.52,1.52,0,0,0,.77.42,4.38,4.38,0,0,0,.95.1c.23,0,.5,0,.79,0a5,5,0,0,0,.75-.12A11.78,11.78,0,0,1,93,29.85a5.08,5.08,0,0,1-1.31.25q-.77.06-1.43.06a7.73,7.73,0,0,1-2.09-.27,4.47,4.47,0,0,1-1.7-.89,4.18,4.18,0,0,1-1.16-1.66,6.88,6.88,0,0,1-.43-2.59Z" transform="translate(-0.67 -0.91)"/><path class="cls-3" d="M103.48,29.54l14-24H105.22a5.87,5.87,0,0,1-.12-.81c0-.31,0-.6,0-.89s0-.58,0-.89a7.2,7.2,0,0,1,.12-.85h18l.27.35-14,24h13a6.25,6.25,0,0,1,.12.83c0,.32,0,.63,0,.91s0,.58,0,.89a6.2,6.2,0,0,1-.12.81H103.71Z" transform="translate(-0.67 -0.91)"/><path class="cls-3" d="M137.56,16.82a3.77,3.77,0,0,0-1.16-3.17,5.45,5.45,0,0,0-3.36-.89,14.27,14.27,0,0,0-2.53.21,19.25,19.25,0,0,0-2.3.56,6,6,0,0,1-.73-3.05,17.87,17.87,0,0,1,2.9-.66,21.14,21.14,0,0,1,3.05-.23,8.67,8.67,0,0,1,5.87,1.76q2,1.76,2,5.62v12.4Q140,29.69,138,30a23.51,23.51,0,0,1-3.94.33,15.38,15.38,0,0,1-3.42-.35,7,7,0,0,1-2.59-1.12,5.2,5.2,0,0,1-1.64-2,6.62,6.62,0,0,1-.58-2.9,5.91,5.91,0,0,1,2.51-5A8.18,8.18,0,0,1,131,17.77a12.14,12.14,0,0,1,3.17-.41q1.24,0,2,.06c.53,0,1,.08,1.33.14Zm0,3.75q-.58-.08-1.47-.15c-.59-.05-1.09-.08-1.51-.08a6.29,6.29,0,0,0-3.65.89,3.09,3.09,0,0,0-1.26,2.7,3.31,3.31,0,0,0,.43,1.82,2.92,2.92,0,0,0,1.06,1,3.67,3.67,0,0,0,1.41.42,14.43,14.43,0,0,0,1.47.08,18.09,18.09,0,0,0,1.83-.1,11,11,0,0,0,1.68-.29Z" transform="translate(-0.67 -0.91)"/><path class="cls-3" d="M147.07,10.06q.42-.08.83-.12c.27,0,.55,0,.83,0a7.71,7.71,0,0,1,.79,0l.79.12q.12.58.23,1.56a14.32,14.32,0,0,1,.12,1.64,7.91,7.91,0,0,1,1-1.31A7.61,7.61,0,0,1,153,10.78a7.07,7.07,0,0,1,4-1.18,6.16,6.16,0,0,1,5,2,8.85,8.85,0,0,1,1.62,5.78V29.88a9.18,9.18,0,0,1-1,.12c-.36,0-.68,0-1,0s-.6,0-.95,0a9.19,9.19,0,0,1-.95-.12V18.37a7.52,7.52,0,0,0-.85-4A3,3,0,0,0,156.26,13a5.46,5.46,0,0,0-2,.39,4.55,4.55,0,0,0-1.7,1.2,6,6,0,0,0-1.18,2.11,9.61,9.61,0,0,0-.45,3.11v10a9.17,9.17,0,0,1-.95.12c-.35,0-.66,0-.95,0s-.61,0-1,0a9.14,9.14,0,0,1-1-.12Z" transform="translate(-0.67 -0.91)"/><path class="cls-3" d="M170.13,13.12h-3l-.15-.54,6.65-7.42h.31v4.91h5a6.45,6.45,0,0,1,.15,1.47c0,.28,0,.55,0,.81s-.06.52-.12.77h-5v9a19.64,19.64,0,0,0,.13,2.59,3.82,3.82,0,0,0,.46,1.49,1.58,1.58,0,0,0,.89.7,4.83,4.83,0,0,0,1.41.17,7.52,7.52,0,0,0,1.24-.1q.58-.1,1-.21a6.1,6.1,0,0,1,.33,1.58q.06.81.06,1.43a12.7,12.7,0,0,1-1.62.29,16.34,16.34,0,0,1-1.82.1,6.43,6.43,0,0,1-4.35-1.35q-1.56-1.35-1.57-4.48Z" transform="translate(-0.67 -0.91)"/><path class="cls-3" d="M186.09,20.92a6.47,6.47,0,0,0,1.68,4.75,6.68,6.68,0,0,0,4.73,1.51,14.2,14.2,0,0,0,5.22-1,5.84,5.84,0,0,1,.5,1.41,9.29,9.29,0,0,1,.23,1.64,13,13,0,0,1-2.8.81,19.51,19.51,0,0,1-3.38.27,12.75,12.75,0,0,1-4.64-.75,8.33,8.33,0,0,1-3.19-2.12,8.41,8.41,0,0,1-1.84-3.25,13.87,13.87,0,0,1-.58-4.12A14.6,14.6,0,0,1,182.6,16a9.25,9.25,0,0,1,1.72-3.32,8.3,8.3,0,0,1,2.92-2.24,9.64,9.64,0,0,1,4.15-.83,8.68,8.68,0,0,1,3.59.7,7.31,7.31,0,0,1,2.59,1.91,8.3,8.3,0,0,1,1.58,2.9,11.87,11.87,0,0,1,.54,3.65q0,.54,0,1.14t-.08,1Zm9.81-2.86a7.29,7.29,0,0,0-.29-2.07,5.23,5.23,0,0,0-.85-1.72,4.13,4.13,0,0,0-1.43-1.18,4.5,4.5,0,0,0-2.07-.44,4.55,4.55,0,0,0-3.61,1.43,7,7,0,0,0-1.53,4Z" transform="translate(-0.67 -0.91)"/></g><g id="_" data-name=" " class="cls-1"><path class="cls-4" d="M163.91,38.93a.31.31,0,0,1-.11.21l-1.57,1.53.37,2.16a.49.49,0,0,1,0,.09.24.24,0,0,1,0,.15.15.15,0,0,1-.13.06.35.35,0,0,1-.17-.05l-1.94-1-1.94,1a.37.37,0,0,1-.17.05.16.16,0,0,1-.14-.06.25.25,0,0,1,0-.15.62.62,0,0,1,0-.09l.37-2.16-1.57-1.53a.33.33,0,0,1-.11-.21c0-.11.08-.17.24-.2l2.16-.32,1-2c.05-.12.13-.18.21-.18s.16.06.21.18l1,2,2.17.32C163.83,38.76,163.91,38.83,163.91,38.93Z" transform="translate(-0.67 -0.91)"/><path class="cls-4" d="M173,38.93a.31.31,0,0,1-.11.21l-1.56,1.53.37,2.16a.62.62,0,0,1,0,.09.25.25,0,0,1,0,.15.15.15,0,0,1-.13.06.35.35,0,0,1-.17-.05l-1.94-1-1.94,1a.37.37,0,0,1-.17.05.16.16,0,0,1-.14-.06.26.26,0,0,1,0-.15.66.66,0,0,1,0-.09l.37-2.16-1.57-1.53a.33.33,0,0,1-.11-.21c0-.11.08-.17.24-.2l2.17-.32,1-2c.05-.12.13-.18.21-.18s.16.06.21.18l1,2,2.17.32C172.93,38.76,173,38.83,173,38.93Z" transform="translate(-0.67 -0.91)"/><path class="cls-4" d="M182.12,38.93a.31.31,0,0,1-.11.21l-1.57,1.53.37,2.16s0,0,0,.09a.26.26,0,0,1,0,.15.15.15,0,0,1-.13.06.35.35,0,0,1-.17-.05l-1.94-1-1.94,1a.37.37,0,0,1-.17.05.16.16,0,0,1-.14-.06.25.25,0,0,1,0-.15.71.71,0,0,1,0-.09l.37-2.16-1.57-1.53a.33.33,0,0,1-.11-.21c0-.11.08-.17.24-.2l2.17-.32,1-2c.05-.12.13-.18.21-.18s.16.06.21.18l1,2,2.16.32C182,38.76,182.12,38.83,182.12,38.93Z" transform="translate(-0.67 -0.91)"/><path class="cls-4" d="M191.23,38.93a.31.31,0,0,1-.11.21l-1.57,1.53.37,2.16a.65.65,0,0,1,0,.09.25.25,0,0,1,0,.15.15.15,0,0,1-.13.06.35.35,0,0,1-.17-.05l-1.94-1-1.94,1a.37.37,0,0,1-.17.05.15.15,0,0,1-.13-.06.24.24,0,0,1,0-.15.66.66,0,0,1,0-.09l.37-2.16-1.57-1.53a.33.33,0,0,1-.11-.21c0-.11.08-.17.24-.2l2.16-.32,1-2c.05-.12.13-.18.21-.18s.16.06.21.18l1,2,2.17.32C191.15,38.76,191.23,38.83,191.23,38.93Z" transform="translate(-0.67 -0.91)"/><path class="cls-4" d="M200.34,38.93a.31.31,0,0,1-.11.21l-1.57,1.53.37,2.16a.49.49,0,0,1,0,.09.24.24,0,0,1,0,.15.15.15,0,0,1-.13.06.35.35,0,0,1-.17-.05l-1.94-1-1.94,1a.37.37,0,0,1-.17.05.16.16,0,0,1-.14-.06.25.25,0,0,1,0-.15.62.62,0,0,1,0-.09l.37-2.16-1.57-1.53a.33.33,0,0,1-.11-.21c0-.11.08-.17.24-.2l2.16-.32,1-2c.05-.12.13-.18.21-.18s.16.06.21.18l1,2,2.17.32C200.26,38.76,200.34,38.83,200.34,38.93Z" transform="translate(-0.67 -0.91)"/></g></svg>